<svg id="Calque_1" data-name="Calque 1" xmlns="http://www.w3.org/2000/svg" xmlns:xlink="http://www.w3.org/1999/xlink" viewBox="0 0 480 480"><defs><style>.cls-1{fill:url(#Degradado_sin_nombre_8);}.cls-2,.cls-3{fill:#fff;}.cls-3{fill-rule:evenodd;}</style><linearGradient id="Degradado_sin_nombre_8" x1="145.15" y1="-171.99" x2="484.15" y2="167.01" gradientTransform="translate(-64.65 252.49)" gradientUnits="userSpaceOnUse"><stop offset="0" stop-color="#60fc7c"/><stop offset="1" stop-color="#4ab161"/></linearGradient></defs><title>wa l</title><rect class="cls-1" x="10" y="10" width="480" height="480" rx="240" ry="240" transform="translate(490 -10) rotate(90)"/><path class="cls-2" d="M120.33,385.81l20-74.66A137.39,137.39,0,0,1,123,244.56c0-76,61.84-137.85,137.85-137.85s137.86,61.84,137.86,137.85S336.92,382.41,260.9,382.41a137.52,137.52,0,0,1-65.53-16.7Zm78.78-48.08,4.73,2.82a112.17,112.17,0,1,0-38.38-38l2.9,4.76L157.19,349Z" transform="translate(-10 -10)"/><path class="cls-3" d="M312.18,263.73c-5.67-3.39-13.06-7.18-19.74-4.45-5.13,2.1-8.4,10.13-11.72,14.22-1.71,2.1-3.74,2.43-6.36,1.38-19.25-7.67-34-20.52-44.62-38.23-1.8-2.75-1.48-4.92.69-7.47,3.21-3.78,7.24-8.07,8.11-13.16s-1.52-11-3.62-15.58c-2.69-5.79-5.7-14.06-11.5-17.33-5.34-3-12.36-1.33-17.12,2.54-8.2,6.68-12.16,17.15-12,27.52a39.09,39.09,0,0,0,1.08,8.73c1.66,6.84,4.82,13.23,8.38,19.31a152.47,152.47,0,0,0,8.75,13.3,135,135,0,0,0,37.94,35.23A114.8,114.8,0,0,0,274.06,301c9.27,3.06,17.53,6.25,27.54,4.35,10.48-2,20.81-8.48,25-18.58a16.14,16.14,0,0,0,1.16-9.48C326.31,270.77,317.47,266.89,312.18,263.73Z" transform="translate(-10 -10)"/></svg>