<svg id="Layer_1" data-name="Layer 1" xmlns="http://www.w3.org/2000/svg" viewBox="0 0 798.84 799"><defs><style>.cls-1{fill:#25d366;}.cls-1,.cls-2,.cls-3{stroke:#fff;stroke-miterlimit:10;stroke-width:4px;}.cls-2{fill:#fcfcfc;}.cls-2,.cls-3{fill-rule:evenodd;}.cls-3{fill:#fdfdfd;}</style></defs><title>whatsapp-icon</title><path class="cls-1" d="M398.75-24.55C398.75,194.91,220.8,373,1.33,373S-396.09,194.91-396.09-24.55-218.19-422,1.33-422,398.75-244,398.75-24.55Z" transform="translate(398.09 424)"/><path class="cls-2" d="M231.32-79.93C205.41-187.42,112.93-260.75,1.15-262a240.26,240.26,0,0,0-45.37,4.65C-200.16-225.79-281-52.9-204.95,86.69a13,13,0,0,1,1,10.62q-15.16,55.2-30.19,110.27c-1.63,6-1.63,6,4.4,4.47,38.16-10,76.25-19.91,114.38-30a11.05,11.05,0,0,1,8.53,1q73.66,37.64,155,22C177.63,179.84,262.21,48.2,231.32-79.93ZM34.15,167.17c-10.65,1.81-21.35,2.77-27,2.66-41.47-.12-75.29-9.41-106.39-28.23a14.22,14.22,0,0,0-12.1-1.81c-20.9,5.79-42,11-62.89,16.52-4.4,1.33-4.82.36-3.71-3.62,5.55-19.9,10.77-39.69,16.5-59.36,1.59-5.55,1-9.77-2.14-14.72-43-69.13-41.2-155.27,6.94-219.22,50-66.6,118-93.86,199.35-76.49C122.89-200.21,174-148.46,192.78-68.7,218.44,40.36,144.42,148.83,34.15,167.17Z" transform="translate(398.09 424)"/><path class="cls-3" d="M62.86,86.94c-8.41.36-16.44-1.57-24.49-3.74C-15.77,67.63-56.4,33.73-89-10.91c-12.34-16.77-23.76-34.14-27.56-55-4.56-25.1,2.65-46.33,21.32-63.71,5.94-5.43,24-7.84,31.28-4.34a12.17,12.17,0,0,1,5.52,6.28c6.84,16.29,13.6,32.33,20.3,48.62,1.27,3.14.72,6.15-.69,9.29-3.44,7.48-9,13.51-14.57,19.42C-57.69-46-57.88-42-54.74-36.85-35.62-5-9.17,18.16,25.43,32c5.16,2.05,9,1.33,12.48-3,5.76-7.12,11.85-14.24,17.31-21.6,3.74-5.19,8-5.91,13.3-3.5C80,9.11,91.39,14.54,102.83,20c2.56,1.09,5.1,2.42,7.63,3.62,11.58,5.79,11.47,5.91,10.47,18.7-1.93,25-20.66,37.29-42.86,43.44A49.45,49.45,0,0,1,62.86,86.94Z" transform="translate(398.09 424)"/></svg>