<svg id="Layer_1" data-name="Layer 1" xmlns="http://www.w3.org/2000/svg" viewBox="0 0 472.74 474.95"><defs><style>.cls-1{fill:#fcfcfc;}.cls-1,.cls-2{fill-rule:evenodd;}.cls-2{fill:#fdfdfd;}</style></defs><title>whatsapp-icon-white</title><path class="cls-1" d="M297.7-41.86C271.79-149.35,179.31-222.68,67.53-223.95a240.26,240.26,0,0,0-45.37,4.65C-133.78-187.72-214.58-14.83-138.57,124.76a13,13,0,0,1,1,10.62q-15.16,55.2-30.19,110.27c-1.63,6-1.63,6,4.4,4.47,38.16-10,76.25-19.91,114.38-30a11.05,11.05,0,0,1,8.53,1q73.66,37.64,155,22C244,217.9,328.59,86.27,297.7-41.86ZM100.53,205.23c-10.65,1.81-21.35,2.77-27,2.66-41.47-.12-75.29-9.41-106.39-28.23a14.22,14.22,0,0,0-12.1-1.81c-20.9,5.79-42,11-62.89,16.52-4.4,1.33-4.82.36-3.71-3.62,5.55-19.9,10.77-39.69,16.5-59.36,1.59-5.55,1-9.77-2.14-14.72-43-69.13-41.2-155.27,6.94-219.22,50-66.6,118-93.86,199.35-76.49,80.17,16.89,131.27,68.65,150.06,148.4C284.82,78.43,210.8,186.89,100.53,205.23Z" transform="translate(168.66 223.95)"/><path class="cls-2" d="M129.24,125c-8.41.36-16.44-1.57-24.49-3.74C50.61,105.7,10,71.8-22.66,27.16-35,10.38-46.42-7-50.22-27.86-54.78-53-47.57-74.19-28.9-91.57-23-97-4.86-99.4,2.38-95.91A12.17,12.17,0,0,1,7.9-89.63C14.74-73.34,21.5-57.3,28.2-41c1.27,3.14.72,6.15-.69,9.29-3.44,7.48-9,13.51-14.57,19.42C8.68-7.95,8.5-4,11.64,1.22c19.12,31.85,45.58,55,80.18,68.89,5.16,2.05,9,1.33,12.48-3,5.76-7.12,11.85-14.24,17.31-21.6,3.74-5.19,8-5.91,13.3-3.5,11.43,5.19,22.86,10.62,34.3,16,2.56,1.09,5.1,2.42,7.63,3.62,11.58,5.79,11.47,5.91,10.47,18.7-1.93,25-20.66,37.29-42.86,43.44A49.45,49.45,0,0,1,129.24,125Z" transform="translate(168.66 223.95)"/></svg>