<svg id="Layer_1" data-name="Layer 1" xmlns="http://www.w3.org/2000/svg" viewBox="0 0 797.84 798"><defs><style>.cls-1{fill:#0d9f16;}.cls-1,.cls-2,.cls-3{stroke:#f2f2f2;stroke-miterlimit:10;stroke-width:3px;}.cls-2{fill:#fcfcfc;}.cls-2,.cls-3{fill-rule:evenodd;}.cls-3{fill:#fdfdfd;}</style></defs><title>whatsapp-icon</title><path class="cls-1" d="M429.75-52.55C429.75,166.91,251.8,345,32.33,345S-365.09,166.91-365.09-52.55-187.19-450,32.33-450,429.75-272,429.75-52.55Z" transform="translate(366.59 451.5)"/><path class="cls-2" d="M262.32-107.93C236.41-215.42,143.93-288.75,32.15-290a240.26,240.26,0,0,0-45.37,4.65C-169.16-253.79-250-80.9-173.95,58.69a13,13,0,0,1,1,10.62q-15.16,55.2-30.19,110.27c-1.63,6-1.63,6,4.4,4.47,38.16-10,76.25-19.91,114.38-30a11.05,11.05,0,0,1,8.53,1q73.66,37.64,155,22C208.63,151.84,293.21,20.2,262.32-107.93ZM65.15,139.17c-10.65,1.81-21.35,2.77-27,2.66-41.47-.12-75.29-9.41-106.39-28.23a14.22,14.22,0,0,0-12.1-1.81c-20.9,5.79-42,11-62.89,16.52-4.4,1.33-4.82.36-3.71-3.62,5.55-19.9,10.77-39.69,16.5-59.36,1.59-5.55,1-9.77-2.14-14.72-43-69.13-41.2-155.27,6.94-219.22,50-66.6,118-93.86,199.35-76.49C153.89-228.21,205-176.46,223.78-96.7,249.44,12.36,175.42,120.83,65.15,139.17Z" transform="translate(366.59 451.5)"/><path class="cls-3" d="M93.86,58.94c-8.41.36-16.44-1.57-24.49-3.74C15.23,39.63-25.4,5.73-58-38.91c-12.34-16.77-23.76-34.14-27.56-55C-90.16-119-83-140.26-64.28-157.63c5.94-5.43,24-7.84,31.28-4.34a12.17,12.17,0,0,1,5.52,6.28c6.84,16.29,13.6,32.33,20.3,48.62,1.27,3.14.72,6.15-.69,9.29-3.44,7.48-9,13.51-14.57,19.42C-26.69-74-26.88-70-23.74-64.85-4.62-33,21.83-9.84,56.43,4c5.16,2.05,9,1.33,12.48-3,5.76-7.12,11.85-14.24,17.31-21.6,3.74-5.19,8-5.91,13.3-3.5,11.43,5.19,22.86,10.62,34.3,16,2.56,1.09,5.1,2.42,7.63,3.62,11.58,5.79,11.47,5.91,10.47,18.7-1.93,25-20.66,37.29-42.86,43.44A49.45,49.45,0,0,1,93.86,58.94Z" transform="translate(366.59 451.5)"/></svg>